<svg id="Vrstva_1" data-name="Vrstva 1" xmlns="http://www.w3.org/2000/svg" viewBox="0 0 810.92 158.39"><defs><style>.cls-1{fill:#010101;}.cls-2{fill:#cf1139;}</style></defs><path class="cls-1" d="M260.72,18.83A36.25,36.25,0,0,1,274.8,4.41c21.62-12.24,49.44,2.42,51.55,27.13.21,2.45.27,4.9.27,7.36q0,49.32.06,98.63c0,2-.52,2.44-2.46,2.43q-16.32-.15-32.66,0c-1.94,0-2.59-.35-2.58-2.48q.12-44.62,0-89.24c0-3.71-1.65-5.88-4.54-6a4.66,4.66,0,0,0-5,4.12,14.85,14.85,0,0,0-.14,2.67q0,44.28,0,88.57c0,2-.56,2.4-2.46,2.38q-16.44-.13-32.89,0c-1.73,0-2-.49-2-2.1q.08-44.52,0-89a10.46,10.46,0,0,0-.29-3.1,4.61,4.61,0,0,0-4.58-3.53,4.51,4.51,0,0,0-4.55,3.54,12.07,12.07,0,0,0-.26,2.88q0,44.4,0,88.79c0,2-.44,2.57-2.51,2.55-11-.11-21.92-.08-32.89,0-1.61,0-2.29-.22-2.28-2.12.06-34.22,0-68.44.06-102.66a34.88,34.88,0,0,1,65-17.8C260.06,17.8,260.34,18.24,260.72,18.83Z"/><path class="cls-1" d="M345.69,70.15a72.91,72.91,0,0,1,21-50.85c24.4-25,62.06-25.68,87-2.23,17.86,16.82,25,38,23,62.22a73.51,73.51,0,0,1-20.08,45.19c-21.06,22.68-55.84,26.34-80.87,8.21-16.26-11.77-25.49-27.9-29-47.51A86.33,86.33,0,0,1,345.69,70.15Zm93.4,2a32.65,32.65,0,0,0-3.26-14.25C427,39.21,403.66,36.18,390.7,52c-10,12.21-9.18,31.24,1.88,42.5,9.64,9.83,24.52,10.85,35.05,2.27C435.4,90.41,438.87,82,439.09,72.11Z"/><path class="cls-1" d="M810.92,139.91c-13.41,0-26.54,0-39.66,0a1.63,1.63,0,0,1-1.78-1.24q-8.55-22.26-17.14-44.52a6.89,6.89,0,0,1-.3-2.41c0-10.81,0-21.63,0-32.44,0-1.74.41-2.41,2.21-2.21a30.13,30.13,0,0,0,4.25,0,9.16,9.16,0,0,0,9-8.75,8.91,8.91,0,0,0-8.18-9.24c-3.11-.29-6.25-.11-9.38-.21-1,0-1.34.34-1.24,1.29a12,12,0,0,1,0,1.34q0,48,0,95.95c0,2-.45,2.47-2.43,2.45-11.18-.11-22.37-.08-33.56,0-1.61,0-2.29-.22-2.29-2.12q.09-67.78,0-135.55c0-1.61.3-2.15,2-2.14,16.26.07,32.52,0,48.78.06C782.66.3,802.62,18,805.49,39.31c2.27,16.8-2.78,31-15.4,42.39-1.11,1-.91,1.73-.49,2.82q10.33,26.72,20.65,53.45C810.46,138.51,810.63,139.07,810.92,139.91Z"/><path class="cls-2" d="M34.64,158.39a56.64,56.64,0,0,1-23.25-4.69,25.91,25.91,0,0,1-8.59-5.92c-3.75-4.09-3.74-8.49.08-12.51,5.44-5.71,12.52-8.11,20-9.75,9.63-2.14,19.26-1.21,28.88.19,23,3.34,45.7,8.27,68.6,12.11l4,.64c1.44.22,2.81.09,3.22-1.58s-.67-2.43-2.07-2.92c-6.4-2.21-12.77-4.47-19.18-6.65-18.87-6.42-37.94-12.26-56.45-19.72-10.39-4.19-19.58-10.07-26.59-19A27.8,27.8,0,0,1,17.75,78c-1.32-5.48.65-9.27,6-10.95,6.49-2,13-1.16,19.39.57A63.08,63.08,0,0,1,64.07,77.86c13,9.53,25.05,20.22,37.3,30.66,8.56,7.3,17.17,14.55,25.75,21.82,1.22,1,2.52,1.88,3.88.42s.39-2.56-.58-3.72C119.86,114.42,108.74,102.27,98,89.82c-8.28-9.57-16.87-18.93-23.81-29.57C68.15,51,64.43,41,64.92,29.78a18.41,18.41,0,0,1,.26-2.22C66.8,18.74,71.68,16,80,19.48c9.11,3.8,15.44,10.76,20.68,18.81,5.44,8.37,8.72,17.74,12.07,27,7,19.44,13.8,39,20.68,58.44.2.56.43,1.11.63,1.67.52,1.43,1.42,2.37,3,1.83,1.45-.49,1.68-1.63,1.41-3.07-1.23-6.44-2.33-12.9-3.57-19.33-3.59-18.55-7.56-37-10.37-55.73-1.74-11.54-1.94-23,2.15-34.16a33,33,0,0,1,6.17-10.8c4.69-5.29,9.91-5.44,14.76-.3s7,11.49,8.54,18.16c2.22,9.78,1.32,19.55-.21,29.31-3.5,22.43-8.52,44.57-12.57,66.9A158.38,158.38,0,0,0,140.57,139c0,1-.33,1.19-1.26,1.28-17,1.63-33.59,5.76-50.3,9.09-15.69,3.13-31.31,6.67-47.24,8.51C39.41,158.2,37,158.24,34.64,158.39Z"/><path class="cls-1" d="M494.58,69.78c0-10.51,0-21,0-31.53A38,38,0,0,1,524.3.94a29.17,29.17,0,0,1,6.64-.77c11,0,22.07,0,33.11,0,1.6,0,2.11.29,2.1,2q-.14,19.45,0,38.91c0,1.66-.39,2.11-2.08,2.09-7.9-.1-15.81-.06-23.71,0-4.18,0-7,2.5-7,6.17s2.81,6.29,6.93,6.33q10.62.1,21.25,0c1.53,0,2,.33,2,1.93q-.12,13.88,0,27.73c0,1.53-.47,1.81-1.87,1.8-8.28-.06-16.55,0-24.83,0a6.32,6.32,0,0,0-6.15,3.67,5.87,5.87,0,0,0,.76,6.5c1.51,1.9,3.62,2.44,6,2.43,8.87,0,17.74,0,26.62-.05,1.62,0,2.12.33,2.11,2.05-.08,12.15-.06,24.3,0,36.45,0,1.18,0,1.86-1.59,1.85-11.41-.1-22.82.09-34.22-.16-17.7-.39-33.69-15.42-35.33-33.13-1-10.41-.21-20.86-.39-31.29C494.55,73.51,494.58,71.65,494.58,69.78Z"/><path class="cls-1" d="M590.64,70.05c0-22.51,0-45,0-67.53,0-2,.52-2.41,2.44-2.4q16.77.15,33.55,0c1.68,0,2.23.32,2.22,2.14-.08,15.35,0,30.71-.11,46.06,0,2.25.63,2.76,2.7,2.58,2.22-.19,4.47,0,6.71-.07,1.32-.06,1.81.27,1.8,1.71q-.09,17.44,0,34.88c0,1.31-.42,1.67-1.67,1.63-2.45-.07-4.93.12-7.37-.07-1.89-.14-2.14.63-2.13,2.27,0,15.5,0,31,.08,46.51,0,1.77-.47,2.18-2.2,2.17q-16.77-.12-33.55,0c-1.86,0-2.47-.3-2.47-2.37C590.68,115.07,590.64,92.56,590.64,70.05Z"/><path class="cls-1" d="M644.49,69.93q0-33.78,0-67.54c0-1.67.29-2.28,2.15-2.27,11.33.1,22.67.08,34,0,1.64,0,2.27.26,2.27,2.14q-.09,67.76,0,135.52c0,1.88-.63,2.15-2.27,2.14-11.33-.06-22.67-.08-34,0-1.86,0-2.15-.61-2.15-2.27Q644.53,103.81,644.49,69.93Z"/></svg>